<svg width="16" height="16" viewBox="0 0 16 16" fill="none" xmlns="http://www.w3.org/2000/svg">
  <path d="M1.5 4.25c0-.69.56-1.25 1.25-1.25h3.18c.36 0 .7.16.94.43l.77.89c.24.27.58.43.94.43h4.67c.69 0 1.25.56 1.25 1.25v1h-13V4.25Z" fill="#007E8C"/>
  <path d="M1.6 6.5c.09-.58.59-1 1.18-1h10.93c.78 0 1.35.74 1.15 1.49l-1.25 4.75c-.14.53-.61.89-1.16.89H2.15c-.75 0-1.32-.68-1.18-1.42L1.6 6.5Z" fill="#B00070"/>
  <path d="M2.3 7.15c.06-.37.38-.65.76-.65h10.52c.34 0 .58.32.5.64l-1.13 4.08c-.09.34-.4.58-.75.58H2.4c-.35 0-.62-.32-.56-.67l.46-3.98Z" fill="#00A7B6" opacity=".92"/>
  <path d="M2.53 8.05h10.82l-.86 3.1H2.18l.35-3.1Z" fill="#B8F3F8" opacity=".7"/>
  <path d="M2.3 7.15c.06-.37.38-.65.76-.65h10.52c.34 0 .58.32.5.64l-1.13 4.08c-.09.34-.4.58-.75.58H2.4c-.35 0-.62-.32-.56-.67l.46-3.98Z" stroke="#005B66" stroke-opacity=".35"/>
</svg>
