<svg width="16" height="16" viewBox="0 0 16 16" fill="none" xmlns="http://www.w3.org/2000/svg">
  <path d="M1.25 4c0-.83.67-1.5 1.5-1.5h3.18c.43 0 .84.18 1.12.51l.77.88c.19.23.47.36.76.36h4.67c.83 0 1.5.67 1.5 1.5v1.1H1.25V4Z" fill="#315FD6"/>
  <path d="M1.45 6.42c.1-.7.7-1.22 1.41-1.22h10.85c.94 0 1.62.89 1.38 1.8l-1.25 4.75a1.43 1.43 0 0 1-1.38 1.07H2.15c-.89 0-1.56-.8-1.4-1.68l.7-4.72Z" fill="#B00070"/>
  <path d="M2.25 7.12c.07-.45.45-.77.9-.77h10.34c.4 0 .69.38.58.77l-1.1 4.03c-.11.4-.47.67-.88.67H2.45c-.42 0-.74-.37-.68-.79l.48-3.91Z" fill="#007E8C"/>
  <path d="M2.5 8.05h10.85l-.86 3.1H2.12l.38-3.1Z" fill="#B8F3F8" opacity=".68"/>
  <path d="M4.25 9.75h7.5" stroke="#005B66" stroke-opacity=".55" stroke-linecap="round"/>
</svg>
