<svg width="16" height="16" viewBox="0 0 16 16" fill="none" xmlns="http://www.w3.org/2000/svg">
  <path d="M1.25 4c0-.83.67-1.5 1.5-1.5h3.18c.43 0 .84.18 1.12.51l.77.88c.19.23.47.36.76.36h4.67c.83 0 1.5.67 1.5 1.5v.95H1.25V4Z" fill="#315FD6"/>
  <path d="M1.25 6.1c0-.83.67-1.5 1.5-1.5h10.5c.83 0 1.5.67 1.5 1.5v5.65c0 .83-.67 1.5-1.5 1.5H2.75c-.83 0-1.5-.67-1.5-1.5V6.1Z" fill="#B00070"/>
  <path d="M2.1 6h11.8v5.55c0 .47-.38.85-.85.85H2.95a.85.85 0 0 1-.85-.85V6Z" fill="#007E8C"/>
  <path d="M2.1 7.05h11.8v4.5c0 .47-.38.85-.85.85H2.95a.85.85 0 0 1-.85-.85v-4.5Z" fill="#B8F3F8" opacity=".68"/>
  <path d="M4.25 9.75h7.5" stroke="#005B66" stroke-opacity=".55" stroke-linecap="round"/>
</svg>
